<?xml version="1.0" encoding="utf-8"?>
<svg width="496" height="620" viewBox="0 0 131.23333 164.04167" version="1.1">
  <defs id="defs16656">
    <linearGradient id="linearGradient30020">
      <stop style="stop-color:#d7c7d7;stop-opacity:1;" offset="0" id="stop30016"/>
      <stop style="stop-color:#a094b0;stop-opacity:1;" offset="1" id="stop30018"/>
    </linearGradient>
    <linearGradient id="linearGradient30012">
      <stop style="stop-color:#e9c8d5;stop-opacity:1;" offset="0" id="stop30008"/>
      <stop style="stop-color:#a8808d;stop-opacity:1;" offset="1" id="stop30010"/>
    </linearGradient>
    <linearGradient id="linearGradient29994">
      <stop style="stop-color:#ffda6c;stop-opacity:1;" offset="0" id="stop29990"/>
      <stop id="stop29998" offset="0.5" style="stop-color:#ffc96c;stop-opacity:1;"/>
      <stop style="stop-color:#cda06c;stop-opacity:1;" offset="1" id="stop29992"/>
    </linearGradient>
    <linearGradient id="linearGradient29986">
      <stop style="stop-color:#eee0ee;stop-opacity:1;" offset="0" id="stop29982"/>
      <stop style="stop-color:#b28aa0;stop-opacity:1;" offset="1" id="stop29984"/>
    </linearGradient>
    <linearGradient id="linearGradient29976">
      <stop style="stop-color:#f8e0ee;stop-opacity:1;" offset="0" id="stop29972"/>
      <stop style="stop-color:#c4d0ee;stop-opacity:1;" offset="1" id="stop29974"/>
    </linearGradient>
    <linearGradient id="linearGradient4186">
      <stop style="stop-color:#7d4e7d;stop-opacity:1;" offset="0" id="stop4188"/>
      <stop style="stop-opacity: 1; stop-color: rgb(0, 195, 137);" offset="1" id="stop4190"/>
    </linearGradient>
    <linearGradient id="linearGradient9893" gradientUnits="userSpaceOnUse" gradientTransform="matrix(1.3463149,-0.2116124,0.2116124,1.3463149,-2118.8923,325.96763)" x1="1593.1167" y1="178.18979" x2="1594.9988" y2="158.88611" xlink:href="#linearGradient4186"/>
    <linearGradient id="linearGradient18833" x1="6.1985788" y1="251.29689" x2="33.542324" y2="214.28006" gradientUnits="userSpaceOnUse" gradientTransform="translate(0,-2.1166667)" xlink:href="#linearGradient4186"/>
    <linearGradient id="linearGradient18843" x1="-3.0735996" y1="213.34462" x2="23.386084" y2="187.82039" gradientUnits="userSpaceOnUse" gradientTransform="translate(0,-2.1166667)" xlink:href="#linearGradient4186"/>
    <linearGradient id="linearGradient29952" x1="1.7372515" y1="231.01047" x2="27.528761" y2="204.01624" gradientUnits="userSpaceOnUse" gradientTransform="translate(0,-2.1166667)" xlink:href="#linearGradient4186"/>
    <linearGradient id="linearGradient29978" x1="43.63266" y1="244.37971" x2="59.024658" y2="244.37971" gradientUnits="userSpaceOnUse" gradientTransform="translate(0,-2.1166667)" xlink:href="#linearGradient29976"/>
    <linearGradient id="linearGradient29988" x1="65.687714" y1="205.56433" x2="65.687714" y2="210.10793" gradientUnits="userSpaceOnUse" gradientTransform="translate(0,-2.1166667)" xlink:href="#linearGradient29986"/>
    <radialGradient id="radialGradient29996" cx="47.019047" cy="195.53632" r="11.039472" gradientTransform="matrix(1,0,0,0.93172177,0,11.234208)" gradientUnits="userSpaceOnUse" xlink:href="#linearGradient29994"/>
    <linearGradient id="linearGradient30014" x1="37.051327" y1="163.33405" x2="52.046265" y2="163.33405" gradientUnits="userSpaceOnUse" gradientTransform="translate(0,-2.1166667)" xlink:href="#linearGradient30012"/>
    <linearGradient id="linearGradient30022" x1="52.097797" y1="241.09435" x2="58.252888" y2="241.09435" gradientUnits="userSpaceOnUse" gradientTransform="translate(0,-2.1166667)" xlink:href="#linearGradient30020"/>
    <linearGradient id="linearGradient30196" gradientUnits="userSpaceOnUse" gradientTransform="matrix(-1.3463149,-0.2116124,-0.2116124,1.3463149,2248.5372,326.29433)" x1="1591.0958" y1="183.47906" x2="1601.3066" y2="118.8708" xlink:href="#linearGradient4186"/>
    <radialGradient id="radialGradient30198" gradientUnits="userSpaceOnUse" gradientTransform="matrix(-1,0,0,0.93172177,131.23333,11.234208)" cx="47.019047" cy="195.53632" r="11.039472" xlink:href="#linearGradient29994"/>
    <linearGradient id="linearGradient30200" gradientUnits="userSpaceOnUse" x1="52.097797" y1="241.09435" x2="58.252888" y2="241.09435" gradientTransform="matrix(-1,0,0,1,131.23333,-2.1166667)" xlink:href="#linearGradient30020"/>
    <linearGradient id="linearGradient30202" gradientUnits="userSpaceOnUse" gradientTransform="matrix(-1.3463149,-0.2116124,-0.2116124,1.3463149,2248.7238,341.38223)" x1="1591.3348" y1="197.59808" x2="1597.6755" y2="157.80885" xlink:href="#linearGradient4186"/>
    <linearGradient id="linearGradient30204" gradientUnits="userSpaceOnUse" x1="43.63266" y1="244.37971" x2="59.024658" y2="244.37971" gradientTransform="matrix(-1,0,0,1,131.23333,-2.1166667)" xlink:href="#linearGradient29976"/>
    <linearGradient id="linearGradient30208" gradientUnits="userSpaceOnUse" x1="37.051327" y1="163.33405" x2="52.046265" y2="163.33405" gradientTransform="matrix(-1,0,0,1,131.23333,-2.1166667)" xlink:href="#linearGradient30012"/>
    <linearGradient id="linearGradient30210" gradientUnits="userSpaceOnUse" x1="6.1985788" y1="251.29689" x2="33.542324" y2="214.28006" gradientTransform="matrix(-1,0,0,1,131.23333,-2.1166667)" xlink:href="#linearGradient4186"/>
    <linearGradient id="linearGradient30212" gradientUnits="userSpaceOnUse" x1="-3.0735996" y1="213.34462" x2="23.386084" y2="187.82039" gradientTransform="matrix(-1,0,0,1,131.23333,-2.1166667)" xlink:href="#linearGradient4186"/>
    <linearGradient id="linearGradient30214" gradientUnits="userSpaceOnUse" x1="1.7372515" y1="231.01047" x2="27.528761" y2="204.01624" gradientTransform="matrix(-1,0,0,1,131.23333,-2.1166667)" xlink:href="#linearGradient4186"/>
  </defs>
  <g id="layer1" transform="translate(0,-132.95832)">
    <path style="color:#000000;display:inline;overflow:visible;visibility:visible;fill:url(#linearGradient30196);fill-opacity:1;fill-rule:nonzero;stroke:none;stroke-width:25.95893097;marker:none;enable-background:accumulate" d="m 80.68007,242.02062 c 5.316421,4.96409 12.151879,3.04154 11.163825,20.74965 5.089029,-6.87687 6.576024,-13.42923 7.299244,-21.9618 3.855801,0.92734 5.489101,9.15599 5.279501,19.00579 12.0995,-20.18126 4.44368,-41.53156 4.44368,-41.53156 5.06515,-1.10593 13.42928,6.03551 13.42928,6.03551 -0.26705,-2.62346 -0.11301,-8.05306 -6.54924,-14.57038 1.68998,-1.16399 3.92342,-0.39229 6.80386,0.26043 -1.68317,-6.65828 -9.13523,-10.7586 -9.13523,-10.7586 6.0009,-0.14376 11.46834,4.74993 11.46834,4.74993 -8.19372,-22.21215 -25.276401,-27.08586 -25.276401,-27.08586 -4.181148,-17.4848 -9.799978,-26.1299 -14.856587,-35.85752 -1.095785,-2.10801 -2.250108,-1.89572 -2.651012,-0.42574 -0.235488,0.86346 -5.392973,11.79131 -7.531129,31.16835 -2.472375,-0.75885 -5.446567,-0.47593 -8.951533,-0.47593 -3.504967,0 -6.479159,-0.28292 -8.951534,0.47593 -2.138156,-19.37704 -7.295641,-30.30489 -7.531129,-31.16835 -0.400904,-1.46998 -1.555227,-1.68227 -2.651012,0.42574 -5.056609,9.72762 -10.675439,18.37272 -14.856587,35.85752 0,0 -17.082679,4.87371 -25.276406,27.08586 0,0 5.467448,-4.89369 11.468341,-4.74993 0,0 -7.452052,4.10032 -9.1352287,10.7586 2.8804427,-0.65272 5.1138847,-1.42442 6.8038617,-0.26043 -6.4362304,6.51732 -6.2821882,11.94692 -6.5492428,14.57038 0,0 8.3641358,-7.14144 13.4292878,-6.03551 0,0 -7.655829,21.3503 4.443675,41.53156 -0.209597,-9.8498 1.423701,-18.07845 5.279502,-19.00579 0.72322,8.53257 2.210215,15.08493 7.299244,21.9618 -0.988054,-17.70811 5.847404,-15.78556 11.163825,-20.74965 1.348796,6.85342 6.422074,7.25826 15.063403,3.45439 8.641328,3.80387 13.714606,3.39903 15.063402,-3.45439 z" id="path30168"/>
    <path id="path4148" d="m 35.980093,189.55952 c 0,0 16.852403,1.37861 21.748222,5.29675 l 0.330204,1.85757 c 0,0 -12.224306,-1.30536 -17.406567,0.56592 -4.586587,-3.50637 -4.672377,-7.72016 -4.672377,-7.72016 z" style="color:#000000;display:inline;overflow:visible;visibility:visible;fill:url(#radialGradient29996);fill-opacity:1;fill-rule:nonzero;stroke:none;stroke-width:25.95893097;marker:none;enable-background:accumulate"/>
    <path id="path4252" d="m 48.311229,222.97844 c 3.560477,9.81082 -1.467315,21.11283 2.774135,23.27333 2.077071,1.05802 7.775495,2.19207 14.531304,2.19207 6.755808,0 12.454232,-1.13405 14.531303,-2.19207 4.24145,-2.1605 -0.786342,-13.46251 2.774135,-23.27333 1.666172,-4.5911 -7.6234,-7.79767 -17.305438,-7.79767 -9.682039,0 -18.971611,3.20657 -17.305439,7.79767 z" style="color:#000000;display:inline;overflow:visible;visibility:visible;fill:#4b2250;fill-opacity:1;fill-rule:nonzero;stroke:none;stroke-width:28.54575729;marker:none;enable-background:accumulate"/>
    <path id="path4279" d="m 55.906192,233.0186 c -3.446375,4.14865 -4.205431,8.08368 -3.637724,10.24798 l 6.118052,-1.40344 c -1.496309,-1.86744 -3.031442,-5.40411 -2.480328,-8.84454 z" style="color:#000000;display:inline;overflow:visible;visibility:visible;opacity:0.93000034;fill:url(#linearGradient30022);fill-opacity:1;stroke:none;stroke-width:5.70915079;marker:none;enable-background:accumulate"/>
    <path style="color:#000000;display:inline;overflow:visible;visibility:visible;opacity:0.93000034;fill:url(#linearGradient30200);fill-opacity:1;stroke:none;stroke-width:5.70915079;marker:none;enable-background:accumulate" d="m 75.327143,233.0186 c 3.446375,4.14865 4.205431,8.08368 3.637724,10.24798 l -6.118052,-1.40344 c 1.496309,-1.86744 3.031442,-5.40411 2.480328,-8.84454 z" id="path30174"/>
    <path style="color:#000000;display:inline;overflow:visible;visibility:visible;fill:url(#linearGradient30202);fill-opacity:1;fill-rule:nonzero;stroke:none;stroke-width:25.95893097;marker:none;enable-background:accumulate" d="m 76.44491,239.94082 c 3.323148,-0.7378 6.385687,2.6317 8.399131,7.97535 2.672168,7.09193 -0.851115,20.11116 -8.841478,29.45331 3.19601,-9.95986 -0.497798,-13.25781 -1.44857,-15.85303 0.839174,2.44171 1.836784,7.1163 -0.01223,11.1269 0.371357,-4.06458 -3.162153,-9.64621 -4.528661,-8.81738 3.200508,6.65123 -3.367661,22.20146 -4.396434,27.88233 -1.028774,-5.68087 -7.596943,-21.2311 -4.396435,-27.88233 -1.366508,-0.82883 -4.900018,4.7528 -4.528661,8.81738 -1.849014,-4.0106 -0.851404,-8.68519 -0.01223,-11.1269 -0.950772,2.59522 -4.64458,5.89317 -1.44857,15.85303 -7.990363,-9.34215 -11.513646,-22.36138 -8.841478,-29.45331 2.013444,-5.34365 5.075983,-8.71315 8.399131,-7.97535 3.286912,0.72959 2.65896,2.52502 10.828243,2.52502 8.169282,0 7.54133,-1.79543 10.828242,-2.52502 z" id="path30176"/>
    <path id="path4160" d="m 43.988256,220.59906 15.036402,2.39204 c 0,0 -10.450278,20.94597 -8.468964,40.9359 -5.175177,-13.67862 -8.915379,-26.00866 -6.567438,-43.32794 z" style="color:#000000;display:inline;overflow:visible;visibility:visible;fill:url(#linearGradient29978);fill-opacity:1;fill-rule:nonzero;stroke:none;stroke-width:25.95893097;marker:none;enable-background:accumulate"/>
    <path style="color:#000000;display:inline;overflow:visible;visibility:visible;fill:url(#linearGradient30204);fill-opacity:1;fill-rule:nonzero;stroke:none;stroke-width:25.95893097;marker:none;enable-background:accumulate" d="m 87.245079,220.59906 -15.036402,2.39204 c 0,0 10.450278,20.94597 8.468964,40.9359 5.175177,-13.67862 8.915379,-26.00866 6.567438,-43.32794 z" id="path30178"/>
    <path id="path4232" d="m 41.107327,213.00237 c -1.860007,5.45551 3.50863,11.94882 7.149443,14.36575 3.640818,2.41694 14.355777,-2.30753 17.359898,-7.39954 3.00412,5.09201 13.719079,9.81648 17.359897,7.39954 3.640813,-2.41693 9.00945,-8.91024 7.149443,-14.36575 -1.859883,-5.45547 -15.889202,-9.15373 -24.50934,-9.15373 -8.620139,0 -22.649458,3.69826 -24.509341,9.15373 z" style="color:#000000;display:inline;overflow:visible;visibility:visible;fill:url(#linearGradient9893);fill-opacity:1;fill-rule:nonzero;stroke:none;stroke-width:25.95893097;marker:none;enable-background:accumulate"/>
    <path id="path4153" d="m 57.866817,203.83998 c -4.638629,0.7291 -5.19432,7.75715 -5.19432,7.75715 0,0 5.864407,6.16665 4.922914,3.32817 -0.486204,-1.46662 0.336084,-3.40139 3.72425,-3.64593 -2.289496,4.58714 1.709421,7.24774 4.297007,7.24774 2.587585,0 6.586502,-2.6606 4.297006,-7.24774 3.388166,0.24454 4.210454,2.17931 3.72425,3.64593 -0.941493,2.83848 4.922914,-3.32817 4.922914,-3.32817 0,0 -0.555691,-7.02805 -5.19432,-7.75715 -1.800381,-0.28298 -4.809756,-0.57006 -7.74985,-0.57006 -2.940095,0 -5.94947,0.28708 -7.749851,0.57006 z" style="color:#000000;display:inline;overflow:visible;visibility:visible;fill:#39173b;fill-opacity:1;fill-rule:nonzero;stroke:none;stroke-width:25.95893097;marker:none;enable-background:accumulate"/>
    <path id="path4272" d="m 47.710459,147.94825 c -3.063889,4.38818 -8.481654,14.37172 -10.659133,26.53823 1.693945,-0.88998 6.551712,-2.87277 8.201991,-5.84584 0.941203,2.99459 -0.80137,4.33233 -1.494901,5.14192 4.689309,-2.78151 8.28785,-2.6882 8.28785,-2.6882 -0.26727,-3.60814 -1.663112,-15.52893 -4.335807,-23.14611 z" style="color:#000000;display:inline;overflow:visible;visibility:visible;opacity:0.93000034;fill:url(#linearGradient30014);fill-opacity:1;fill-rule:nonzero;stroke:none;stroke-width:25.95893097;marker:none;enable-background:accumulate"/>
    <path style="opacity:1;vector-effect:none;fill:#291728;fill-opacity:1;stroke:none;stroke-width:0.26458332px;stroke-linecap:round;stroke-linejoin:round;stroke-miterlimit:4;stroke-dasharray:none;stroke-dashoffset:0;stroke-opacity:1" d="m 46.086796,196.39113 c -0.531182,-1.98728 -0.686721,-3.50823 0.08402,-5.44226 0.536176,0.12827 1.244577,0.21713 2.221677,0.4262 0.472422,1.47811 0.509729,3.05958 0.08451,4.88005 -0.833792,0.0403 -1.41763,0.0467 -2.390198,0.13601 z" id="path17270"/>
    <path style="opacity:1;vector-effect:none;fill:url(#linearGradient18833);fill-opacity:1;stroke:none;stroke-width:0.26458332px;stroke-linecap:round;stroke-linejoin:round;stroke-miterlimit:4;stroke-dasharray:none;stroke-dashoffset:0;stroke-opacity:1" d="m 26.459682,259.33645 c -4.727406,-8.02191 -7.089924,-18.31494 -6.556159,-27.66285 0.547735,-9.59255 3.209889,-18.72441 10.431567,-22.85109 -2.497467,4.36266 -3.844475,10.55178 -4.506733,17.10898 3.153851,-2.15733 4.875585,-3.99489 8.545808,-4.27863 -10.538054,16.60931 -7.867326,37.30634 -7.914483,37.68359 z" id="path18825"/>
    <path style="opacity:1;vector-effect:none;fill:url(#linearGradient18843);fill-opacity:1;stroke:none;stroke-width:0.26458332px;stroke-linecap:round;stroke-linejoin:round;stroke-miterlimit:4;stroke-dasharray:none;stroke-dashoffset:0;stroke-opacity:1" d="m 6.35,203.61076 c 1.8353178,-9.22384 14.637,-20.69883 15.967005,-21.64883 -3.283313,4.35259 -4.929243,7.42257 -5.746294,10.69078 4.304157,-1.40568 6.520333,-4.39672 12.828937,-3.60814 -6.670603,1.33797 -12.494401,6.92569 -13.764381,9.88897 -3.285912,1.24676 -7.415616,2.43364 -9.285267,4.67722 z" id="path18835"/>
    <path style="opacity:1;vector-effect:none;fill:url(#linearGradient29952);fill-opacity:1;stroke:none;stroke-width:0.26458332px;stroke-linecap:round;stroke-linejoin:round;stroke-miterlimit:4;stroke-dasharray:none;stroke-dashoffset:0;stroke-opacity:1" d="m 8.6862595,209.75796 c 4.1994715,-6.19768 14.9652745,-13.21292 20.7133885,-12.2944 -5.684892,2.35104 -9.750915,6.77999 -10.289877,11.09169 2.628157,-2.21313 8.223496,-5.93901 13.898016,-4.54358 -9.667309,4.40197 -16.117621,11.74327 -16.570711,15.36799 -3.177551,1.46009 -6.056711,3.71091 -7.2162773,4.67722 -0.2326348,-6.47047 2.5843663,-10.87879 5.8799293,-14.43256 -2.006929,-0.95223 -5.4191808,0.0593 -6.4144685,0.13364 z" id="path29944"/>
    <path style="opacity:1;vector-effect:none;fill:url(#linearGradient29988);fill-opacity:1;stroke:none;stroke-width:0.26458332px;stroke-linecap:round;stroke-linejoin:round;stroke-miterlimit:4;stroke-dasharray:none;stroke-dashoffset:0;stroke-opacity:1" d="m 55.658879,206.41709 c -0.715618,1.62193 3.08209,-0.56608 9.957789,-0.56608 6.875698,0 10.673406,2.18801 9.957788,0.56608 -0.883193,-2.00174 -4.583463,-2.55045 -9.957788,-2.55045 -5.374326,0 -9.074596,0.54871 -9.957789,2.55045 z" id="path29980"/>
    <path style="color:#000000;display:inline;overflow:visible;visibility:visible;fill:url(#radialGradient30198);fill-opacity:1;fill-rule:nonzero;stroke:none;stroke-width:25.95893097;marker:none;enable-background:accumulate" d="m 95.253242,189.55952 c 0,0 -16.852403,1.37861 -21.748222,5.29675 l -0.330204,1.85757 c 0,0 12.224306,-1.30536 17.406567,0.56592 4.586587,-3.50637 4.672377,-7.72016 4.672377,-7.72016 z" id="path30170"/>
    <path style="color:#000000;display:inline;overflow:visible;visibility:visible;opacity:0.93000034;fill:url(#linearGradient30208);fill-opacity:1;fill-rule:nonzero;stroke:none;stroke-width:25.95893097;marker:none;enable-background:accumulate" d="m 83.522876,147.94825 c 3.063889,4.38818 8.481654,14.37172 10.659133,26.53823 -1.693945,-0.88998 -6.551712,-2.87277 -8.201991,-5.84584 -0.941203,2.99459 0.80137,4.33233 1.494901,5.14192 -4.689309,-2.78151 -8.28785,-2.6882 -8.28785,-2.6882 0.26727,-3.60814 1.663112,-15.52893 4.335807,-23.14611 z" id="path30184"/>
    <path id="path30186" d="m 85.146539,196.39113 c 0.531182,-1.98728 0.686721,-3.50823 -0.08402,-5.44226 -0.536176,0.12827 -1.244577,0.21713 -2.221677,0.4262 -0.472422,1.47811 -0.509729,3.05958 -0.08451,4.88005 0.833792,0.0403 1.41763,0.0467 2.390198,0.13601 z" style="opacity:1;vector-effect:none;fill:#291728;fill-opacity:1;stroke:none;stroke-width:0.26458332px;stroke-linecap:round;stroke-linejoin:round;stroke-miterlimit:4;stroke-dasharray:none;stroke-dashoffset:0;stroke-opacity:1"/>
    <path id="path30188" d="m 104.77365,259.33645 c 4.72741,-8.02191 7.08993,-18.31494 6.55616,-27.66285 -0.54773,-9.59255 -3.20989,-18.72441 -10.43157,-22.85109 2.49747,4.36266 3.84448,10.55178 4.50674,17.10898 -3.15385,-2.15733 -4.87559,-3.99489 -8.54581,-4.27863 10.53805,16.60931 7.86733,37.30634 7.91448,37.68359 z" style="opacity:1;vector-effect:none;fill:url(#linearGradient30210);fill-opacity:1;stroke:none;stroke-width:0.26458332px;stroke-linecap:round;stroke-linejoin:round;stroke-miterlimit:4;stroke-dasharray:none;stroke-dashoffset:0;stroke-opacity:1"/>
    <path id="path30190" d="m 124.88333,203.61076 c -1.83531,-9.22384 -14.637,-20.69883 -15.967,-21.64883 3.28331,4.35259 4.92924,7.42257 5.74629,10.69078 -4.30415,-1.40568 -6.52033,-4.39672 -12.82893,-3.60814 6.6706,1.33797 12.4944,6.92569 13.76438,9.88897 3.28591,1.24676 7.41561,2.43364 9.28526,4.67722 z" style="opacity:1;vector-effect:none;fill:url(#linearGradient30212);fill-opacity:1;stroke:none;stroke-width:0.26458332px;stroke-linecap:round;stroke-linejoin:round;stroke-miterlimit:4;stroke-dasharray:none;stroke-dashoffset:0;stroke-opacity:1"/>
    <path id="path30192" d="m 122.54707,209.75796 c -4.19947,-6.19768 -14.96527,-13.21292 -20.71338,-12.2944 5.68489,2.35104 9.75091,6.77999 10.28987,11.09169 -2.62815,-2.21313 -8.22349,-5.93901 -13.898012,-4.54358 9.667312,4.40197 16.117622,11.74327 16.570712,15.36799 3.17755,1.46009 6.05671,3.71091 7.21628,4.67722 0.23263,-6.47047 -2.58437,-10.87879 -5.87993,-14.43256 2.00693,-0.95223 5.41918,0.0593 6.41446,0.13364 z" style="opacity:1;vector-effect:none;fill:url(#linearGradient30214);fill-opacity:1;stroke:none;stroke-width:0.26458332px;stroke-linecap:round;stroke-linejoin:round;stroke-miterlimit:4;stroke-dasharray:none;stroke-dashoffset:0;stroke-opacity:1"/>
  </g>
</svg>