<?xml version="1.0" standalone="no"?>
<!DOCTYPE svg PUBLIC "-//W3C//DTD SVG 20010904//EN"
 "http://www.w3.org/TR/2001/REC-SVG-20010904/DTD/svg10.dtd">
<svg version="1.0" xmlns="http://www.w3.org/2000/svg"
 width="857.000000pt" height="857.000000pt" viewBox="0 0 857.000000 857.000000"
 preserveAspectRatio="xMidYMid meet">
<metadata>
Created by potrace 1.14, written by Peter Selinger 2001-2017
</metadata>
<g transform="translate(0.000000,857.000000) scale(0.100000,-0.100000)"
fill="#000000" stroke="none">
<path d="M4311 6738 c-53 -27 -110 -81 -111 -105 0 -7 -12 -13 -26 -13 -72 0
-156 -33 -376 -147 -15 -8 -40 -32 -55 -53 -16 -22 -33 -40 -39 -40 -16 0
-104 -88 -131 -130 -21 -34 -123 -236 -123 -244 0 -13 -88 -134 -109 -151 -31
-25 -111 -65 -131 -65 -8 0 -21 -4 -29 -9 -18 -12 3 -51 28 -51 10 0 29 -9 42
-20 20 -17 22 -21 9 -29 -8 -5 -28 -21 -45 -35 l-30 -26 -7 22 c-3 13 -6 37
-7 54 -1 33 -33 70 -50 60 -5 -4 -20 -24 -32 -46 -30 -52 -66 -55 -103 -8 -25
32 -27 33 -105 32 -56 0 -86 -5 -105 -17 -14 -9 -34 -17 -45 -17 -24 0 -71 20
-89 37 -28 27 -50 33 -56 18 -3 -8 -10 -15 -16 -15 -7 0 -28 -17 -48 -38 l-37
-39 28 -39 29 -39 -54 -8 c-29 -4 -65 -16 -80 -27 -15 -11 -31 -20 -36 -20 -5
0 -16 -8 -26 -19 -9 -10 -48 -35 -87 -55 -81 -43 -82 -43 -235 -188 -88 -84
-164 -187 -213 -292 -12 -27 -28 -55 -35 -62 -7 -7 -16 -38 -20 -69 -3 -31
-13 -69 -21 -85 -17 -34 -92 -96 -120 -102 -13 -2 -21 -13 -23 -31 -3 -25 -1
-27 37 -27 23 0 41 -1 41 -3 0 -2 -11 -37 -25 -77 -14 -40 -22 -76 -19 -79 3
-3 18 2 34 11 l29 16 -6 -51 c-3 -29 -16 -68 -29 -89 -13 -21 -24 -40 -24 -43
0 -3 -21 -33 -46 -67 -25 -35 -54 -79 -64 -98 -10 -19 -27 -46 -39 -60 -35
-43 -44 -56 -84 -133 -22 -43 -30 -55 -59 -87 -9 -10 -14 -21 -10 -24 3 -4 -3
-13 -14 -22 -10 -8 -14 -13 -7 -10 7 4 6 -5 -4 -26 -47 -99 -57 -118 -60 -114
-3 2 5 22 17 45 30 61 16 50 -35 -26 -25 -38 -53 -78 -61 -91 -10 -13 -12 -22
-5 -22 6 0 11 6 11 13 0 7 9 18 20 25 17 10 12 -3 -21 -67 -23 -44 -46 -78
-50 -75 -5 3 -6 -1 -3 -9 3 -9 -3 -17 -18 -20 -13 -4 -34 -16 -47 -28 -24 -23
-25 -47 -5 -159 7 -43 51 -139 73 -160 37 -36 90 -60 130 -60 34 0 49 -6 73
-30 18 -19 44 -32 68 -36 34 -6 40 -11 46 -38 9 -42 50 -116 81 -145 20 -19
32 -22 63 -18 28 4 40 1 44 -10 4 -11 20 -14 59 -12 31 1 71 -5 97 -15 38 -14
71 -16 200 -13 167 5 273 17 307 35 12 7 33 12 47 12 21 0 26 -6 31 -37 4 -21
15 -50 26 -65 10 -15 19 -30 19 -34 0 -3 9 -17 20 -31 24 -30 26 -69 5 -77
-19 -7 -60 -100 -70 -155 -4 -22 -4 -59 0 -82 7 -41 45 -89 70 -89 8 0 15 -4
15 -10 0 -5 7 -10 15 -10 8 0 15 -3 15 -7 0 -7 -34 -83 -51 -115 -5 -10 -14
-50 -20 -90 -6 -40 -15 -82 -19 -93 -5 -11 -12 -33 -16 -50 -4 -16 -9 -34 -10
-40 -2 -5 -9 -36 -15 -68 -6 -31 -15 -57 -20 -57 -5 0 -9 -7 -9 -15 0 -13 230
-15 2010 -15 l2010 0 0 68 c0 47 -3 63 -10 52 -15 -23 -12 -9 25 127 36 132
45 229 23 251 -8 8 -15 81 -19 224 -9 238 -15 299 -33 343 -17 37 -28 175 -15
175 5 0 9 7 9 15 0 8 5 15 10 15 6 0 10 72 10 195 0 123 -4 195 -10 195 -25 0
4 77 44 116 17 17 23 18 31 7 13 -18 112 -28 146 -15 24 10 27 16 31 85 3 52
10 81 21 92 10 9 17 21 17 26 0 16 93 99 111 99 10 0 40 -13 67 -29 77 -45
146 -61 269 -61 147 0 231 15 264 46 14 13 28 24 32 24 3 0 22 16 41 35 20 19
40 35 46 35 5 0 10 6 10 14 0 8 9 21 21 30 19 13 20 21 15 78 -3 34 -10 101
-14 148 -4 47 -13 96 -21 110 -11 19 -13 55 -8 166 6 140 15 184 40 184 17 0
107 92 107 109 0 8 -11 29 -25 47 -14 18 -25 36 -25 41 0 4 -9 19 -20 33 -11
14 -20 32 -20 41 0 9 -7 19 -15 23 -10 4 -15 19 -15 48 1 38 6 47 47 83 25 22
56 50 70 63 13 12 26 22 29 22 3 0 19 13 35 29 27 27 30 37 33 110 2 57 7 84
19 96 10 9 17 21 17 27 0 16 67 89 100 109 17 11 35 31 40 47 6 15 15 35 20
44 13 22 13 138 1 138 -6 0 -12 21 -16 48 -9 77 -26 115 -67 156 -30 30 -41
37 -48 26 -6 -10 -14 -9 -35 9 -15 11 -33 21 -40 21 -7 0 -23 11 -36 23 l-24
24 -195 -6 c-122 -4 -203 -11 -217 -19 -12 -7 -49 -12 -82 -12 l-61 0 -78 80
c-63 62 -95 86 -154 113 -42 19 -79 40 -82 46 -4 6 -11 9 -16 6 -5 -3 -44 4
-87 16 -50 13 -118 22 -188 24 -60 2 -118 7 -128 11 -42 16 -328 -53 -400 -97
-27 -16 -56 -29 -66 -29 -9 0 -32 -11 -51 -25 -19 -14 -40 -25 -47 -25 -7 0
-21 -8 -31 -17 -33 -34 -123 -106 -126 -102 -17 24 -47 86 -61 130 -24 74 -71
173 -111 237 -19 29 -34 54 -34 57 0 11 -40 50 -105 103 -38 31 -83 68 -98 83
-29 27 -163 97 -229 120 -21 7 -38 16 -38 20 0 10 -105 49 -129 49 -12 0 -20
10 -24 28 -7 33 -54 62 -148 92 -48 16 -88 20 -162 19 -61 -1 -94 -5 -86 -10
11 -7 11 -9 -3 -9 -9 0 -18 4 -20 8 -1 4 -27 -5 -57 -20z"/>
<path d="M1761 4944 c0 -11 3 -14 6 -6 3 7 2 16 -1 19 -3 4 -6 -2 -5 -13z"/>
<path d="M1130 3516 c-5 -15 -10 -35 -9 -44 0 -14 2 -14 6 -2 2 8 9 25 15 37
6 13 8 26 5 29 -4 4 -11 -5 -17 -20z"/>
</g>
</svg>
