<?xml version="1.0" standalone="no"?>
<!DOCTYPE svg PUBLIC "-//W3C//DTD SVG 20010904//EN"
 "http://www.w3.org/TR/2001/REC-SVG-20010904/DTD/svg10.dtd">
<svg version="1.0" xmlns="http://www.w3.org/2000/svg"
 width="1963.000000pt" height="1963.000000pt" viewBox="0 0 1963.000000 1963.000000"
 preserveAspectRatio="xMidYMid meet">
<metadata>
Created by potrace 1.14, written by Peter Selinger 2001-2017
</metadata>
<g transform="translate(0.000000,1963.000000) scale(0.100000,-0.100000)"
fill="#000000" stroke="none">
<path d="M5491 19348 c-107 -150 -206 -289 -220 -308 -14 -19 -101 -141 -193
-270 -92 -129 -175 -246 -185 -258 -9 -13 -106 -148 -215 -300 -109 -153 -204
-286 -212 -297 -13 -18 -139 -194 -363 -509 -40 -55 -79 -110 -87 -121 -33
-46 -482 -673 -507 -710 -25 -35 -283 -397 -469 -656 -75 -104 -89 -124 -252
-354 -67 -93 -128 -179 -138 -190 -9 -11 -16 -24 -15 -30 1 -5 5 -30 9 -55 4
-25 9 -56 11 -70 3 -14 18 -108 35 -210 17 -102 33 -201 36 -220 2 -19 7 -47
10 -62 3 -15 7 -39 9 -55 4 -28 42 -265 50 -313 3 -14 14 -81 25 -150 11 -69
23 -136 25 -150 2 -14 16 -97 30 -185 14 -88 28 -173 31 -190 3 -16 7 -41 9
-55 6 -43 40 -250 51 -312 7 -38 8 -49 23 -147 6 -41 13 -83 16 -95 2 -12 7
-37 10 -56 2 -19 6 -44 9 -55 2 -11 7 -40 10 -65 3 -25 8 -54 10 -65 2 -11 9
-54 16 -95 6 -41 13 -86 16 -100 2 -14 11 -68 19 -120 18 -109 19 -114 39
-235 8 -49 17 -103 20 -120 8 -54 27 -169 32 -200 7 -35 10 -54 18 -110 3 -22
23 -148 45 -280 22 -132 43 -256 46 -276 4 -27 1 -39 -15 -54 -11 -10 -20 -24
-20 -32 0 -7 -4 -21 -10 -31 -5 -9 -26 -64 -46 -122 -20 -58 -45 -127 -54
-155 -10 -27 -47 -131 -83 -230 -36 -99 -102 -283 -147 -410 -45 -126 -100
-279 -122 -340 -22 -60 -44 -123 -50 -140 -5 -16 -13 -39 -18 -50 -8 -18 -29
-78 -102 -285 -10 -30 -22 -62 -25 -70 -3 -8 -7 -19 -8 -25 -4 -15 -95 -267
-105 -290 -5 -11 -32 -87 -60 -170 -29 -82 -61 -169 -71 -192 -11 -24 -19 -46
-19 -50 0 -14 -273 -769 -281 -777 -14 -15 -11 -41 11 -83 11 -21 58 -128 105
-238 48 -110 95 -218 105 -240 9 -22 88 -202 175 -400 86 -198 172 -394 190
-435 147 -333 186 -423 210 -480 15 -36 37 -87 50 -115 21 -48 67 -152 300
-685 113 -259 140 -319 334 -764 67 -154 130 -298 140 -320 11 -23 81 -183
156 -356 76 -173 145 -333 156 -355 10 -22 58 -133 107 -246 50 -114 96 -219
104 -233 l14 -27 13 27 c11 25 219 394 227 403 2 2 36 -16 76 -40 40 -24 81
-48 91 -54 9 -5 78 -48 152 -95 75 -47 150 -93 168 -103 17 -10 70 -42 117
-72 47 -29 139 -86 204 -127 195 -119 410 -253 1166 -721 283 -176 530 -328
549 -339 19 -11 60 -36 90 -56 31 -20 65 -41 76 -48 11 -6 59 -35 107 -65 157
-98 211 -131 353 -218 77 -47 142 -89 143 -93 2 -5 8 -8 12 -8 5 0 72 -39 149
-87 78 -49 149 -93 158 -98 10 -6 29 -18 43 -26 14 -9 115 -72 225 -140 110
-67 283 -174 385 -237 102 -63 197 -122 212 -131 15 -9 106 -65 203 -126 96
-60 183 -115 193 -120 9 -6 40 -23 67 -40 28 -16 79 -48 115 -70 36 -23 115
-73 175 -110 61 -38 119 -74 131 -82 18 -11 32 -6 135 57 62 39 121 75 129 80
42 25 1485 920 1547 959 40 26 88 55 107 66 19 11 136 83 260 160 124 77 249
154 278 172 29 17 58 35 64 40 5 4 21 14 35 22 36 22 599 369 639 396 19 12
143 89 275 170 209 130 765 473 1325 820 96 59 228 141 292 181 64 41 120 74
123 74 4 0 21 11 39 25 18 14 36 25 40 25 4 0 15 7 24 16 15 15 17 15 31 -3 9
-11 63 -104 121 -206 58 -103 108 -187 111 -187 3 0 25 44 49 98 23 53 48 111
56 127 7 17 77 176 154 355 238 546 350 803 369 845 10 22 47 105 81 185 34
80 75 173 91 208 16 34 29 64 29 67 0 2 13 32 29 67 16 35 50 113 76 173 26
61 58 134 71 163 13 29 35 79 49 112 14 33 36 83 49 112 13 29 77 175 141 323
65 149 130 298 146 333 16 34 29 65 29 68 0 2 25 62 56 132 89 201 91 205 107
242 21 47 95 216 117 265 10 22 30 69 45 105 26 63 42 98 86 198 12 26 57 128
100 227 203 468 227 520 243 519 19 -2 19 -3 2 43 -8 21 -29 79 -46 128 -17
50 -35 99 -40 110 -4 11 -13 34 -19 50 -5 17 -54 152 -107 300 -144 400 -175
487 -184 515 -4 14 -35 99 -68 190 -84 231 -437 1214 -479 1335 -19 55 -38
109 -43 120 -16 36 -181 499 -197 553 -9 28 -20 52 -25 52 -4 0 -6 12 -3 28 3
15 8 43 11 62 2 19 9 58 14 85 5 28 12 73 16 100 4 28 8 55 10 60 1 6 5 28 8
50 4 22 18 108 31 190 14 83 27 161 29 175 6 35 19 122 22 140 1 8 14 87 29
175 15 88 29 176 31 195 3 19 9 58 14 85 5 28 12 66 15 85 3 19 7 46 10 60 2
14 7 43 10 65 3 22 19 123 36 225 33 203 37 227 43 268 11 65 47 290 52 317 3
17 7 41 9 55 2 14 6 40 9 58 3 17 9 47 12 65 3 17 7 43 9 57 2 14 20 126 40
250 20 124 39 239 42 255 25 161 80 497 87 530 2 11 7 40 10 65 3 25 8 56 11
70 2 13 7 42 11 65 3 22 10 61 14 87 5 26 12 69 16 95 3 26 9 65 14 85 8 36 4
42 -377 575 -211 296 -391 547 -399 558 -8 11 -141 198 -297 415 -155 217
-290 406 -300 420 -10 14 -40 57 -67 95 -27 39 -53 75 -57 80 -10 11 -258 359
-317 444 -22 31 -53 75 -70 97 -17 23 -37 50 -44 60 -7 11 -64 91 -128 179
-63 88 -123 172 -132 186 -9 14 -111 157 -227 318 -287 400 -278 388 -329 461
-40 57 -218 306 -262 367 -43 60 -38 57 -62 26 -12 -15 -90 -129 -174 -253
-187 -280 -502 -747 -663 -985 -118 -174 -423 -628 -609 -905 -50 -74 -93
-137 -96 -140 -3 -3 -9 -13 -15 -23 -5 -9 -118 -177 -249 -372 l-239 -355
-2077 0 -2076 0 -90 132 c-49 72 -91 136 -93 142 -2 6 -7 13 -11 16 -3 3 -66
95 -140 205 -73 110 -194 290 -269 400 -160 237 -490 728 -659 980 -67 99
-125 185 -129 190 -7 9 -286 424 -559 832 -60 89 -111 162 -114 163 -3 0 -93
-123 -199 -272z"/>
</g>
</svg>
